
<svg version="1.0" xmlns="http://www.w3.org/2000/svg"
 width="2048.000000pt" height="2048.000000pt" viewBox="0 0 2048.000000 2048.000000"
 preserveAspectRatio="xMidYMid meet">
<g transform="translate(0.000000,2048.000000) scale(0.100000,-0.100000)"
fill="#000000" stroke="none">
<path d="M12615 19496 c-220 -51 -374 -185 -461 -400 -29 -74 -78 -267 -98
-391 -11 -66 -63 -265 -91 -345 -139 -403 -344 -788 -598 -1125 -168 -222
-458 -527 -674 -708 -657 -550 -1467 -907 -2273 -1002 -413 -48 -471 -46 -815
35 -266 63 -509 86 -790 76 -529 -20 -1026 -128 -1465 -319 -381 -165 -700
-364 -1004 -628 -122 -104 -366 -352 -462 -469 -265 -319 -498 -715 -647
-1095 -279 -713 -349 -1484 -202 -2220 129 -647 435 -1266 893 -1803 34 -41
62 -78 62 -84 0 -103 148 -797 216 -1010 4 -13 0 -18 -13 -18 -29 0 -360 -67
-468 -95 -451 -116 -925 -315 -1330 -559 -318 -191 -568 -376 -840 -621 -137
-124 -255 -243 -255 -260 0 -33 148 -356 289 -630 895 -1736 2354 -3158 4191
-4085 263 -132 434 -209 820 -369 320 -133 898 -321 1290 -420 515 -129 1028
-219 1564 -272 l220 -22 25 31 c31 37 84 169 181 448 314 906 357 2040 114
2979 -29 110 -122 403 -179 560 -20 55 -47 130 -60 167 l-23 67 51 15 c29 8
82 22 117 30 81 19 366 112 485 159 460 179 944 462 1289 754 22 18 45 33 51
33 6 0 29 -26 51 -58 22 -31 166 -232 320 -447 154 -214 631 -878 1059 -1475
428 -597 840 -1170 915 -1275 75 -104 182 -253 237 -330 291 -407 366 -511
378 -524 12 -12 35 -2 157 69 249 146 694 445 943 635 418 319 528 407 785
630 366 318 767 711 1051 1030 548 617 951 1225 1209 1825 113 263 179 453
167 483 -3 7 -20 18 -38 24 -19 6 -79 28 -134 48 -113 41 -347 126 -445 160
-36 13 -108 39 -160 58 -52 19 -183 66 -290 105 -107 39 -240 87 -295 107
-113 41 -347 126 -445 160 -36 13 -108 39 -160 58 -52 19 -189 69 -305 110
-115 42 -248 90 -295 107 -85 31 -306 112 -430 155 -36 13 -110 40 -165 60
-55 20 -188 68 -295 107 -107 39 -238 86 -290 105 -52 19 -156 56 -230 83 -74
27 -178 64 -230 83 -107 39 -462 167 -560 202 -36 13 -110 40 -165 60 -117 43
-352 127 -445 161 -63 22 -238 86 -291 105 -29 11 -30 -3 6 229 13 85 29 191
35 235 21 151 17 141 68 160 485 181 1067 523 1497 880 1083 900 1773 2151
1950 3540 15 110 28 272 31 360 2 88 6 189 8 225 2 36 0 175 -4 310 -17 513
-117 1059 -281 1526 -17 49 -37 107 -44 129 -7 22 -32 85 -55 140 -23 55 -46
113 -52 130 -7 16 -33 74 -60 128 -26 54 -48 100 -48 103 0 10 -164 313 -223
409 -240 398 -501 731 -836 1065 -574 573 -1194 973 -1943 1254 -389 145 -605
188 -763 152z m-3465 -8276 c208 -46 536 -182 1010 -417 155 -77 453 -231 565
-293 28 -15 86 -47 130 -70 238 -128 500 -274 575 -321 282 -177 444 -344 500
-519 44 -136 13 -291 -136 -684 -99 -262 -445 -949 -826 -1645 -248 -451 -446
-685 -631 -743 -152 -48 -394 -10 -677 105 -201 82 -753 349 -1090 527 -85 45
-211 111 -280 147 -352 184 -416 218 -520 281 -385 233 -569 455 -570 689 0
270 257 867 835 1933 289 535 367 658 514 812 97 102 179 162 266 195 80 29
211 31 335 3z m3721 -2756 c102 -15 265 -66 363 -116 372 -187 628 -520 718
-936 28 -129 30 -367 4 -492 -54 -264 -176 -503 -350 -689 -48 -51 -177 -155
-240 -195 -239 -150 -538 -221 -833 -197 -327 26 -615 162 -841 395 -403 416
-485 1031 -208 1553 69 129 149 234 256 337 229 219 488 332 820 359 64 6 200
-3 311 -19z m1560 -499 c138 -20 253 -52 494 -136 655 -229 887 -347 1094
-558 128 -132 198 -246 295 -484 46 -112 46 -117 -1 -112 -21 2 -69 7 -108 10
-38 4 -72 8 -75 10 -3 2 -30 6 -60 10 -132 15 -131 15 -150 71 -25 72 -83 190
-128 260 -43 65 -157 192 -203 225 l-29 20 -27 -58 c-47 -100 -171 -311 -291
-493 -63 -96 -118 -177 -122 -180 -3 -3 -24 -30 -46 -60 -74 -104 -301 -388
-353 -441 -9 -9 -43 -47 -76 -85 -113 -129 -402 -409 -556 -540 -142 -121
-166 -137 -307 -207 l-153 -75 -108 86 c-60 48 -134 105 -165 126 l-57 39 -75
-23 c-41 -13 -73 -27 -72 -31 2 -3 54 -48 117 -99 83 -68 110 -95 100 -101
-11 -7 -75 -29 -134 -45 -5 -2 -35 -10 -65 -19 -96 -29 -120 -33 -125 -24 -3
4 -58 57 -123 116 l-117 109 -105 -8 c-58 -5 -123 -6 -145 -3 -22 2 -69 8
-105 11 -121 12 -138 23 -243 170 -52 71 -102 143 -113 159 l-19 28 26 -16
c36 -24 194 -74 269 -85 232 -35 581 14 882 122 95 34 97 35 120 17 13 -10 89
-62 170 -114 l147 -96 87 87 c115 115 363 405 471 551 47 64 98 132 113 151
32 43 205 304 250 380 31 52 42 70 89 153 10 18 48 91 84 162 116 230 164 362
211 577 7 32 9 31 -139 54 -130 20 -328 20 -431 0 l-71 -13 -114 94 c-63 52
-158 127 -211 166 l-97 72 32 17 c118 60 290 80 468 53z m954 -1870 c116 -70
225 -144 244 -164 103 -109 107 -308 10 -488 -22 -40 -37 -73 -34 -73 5 0 84
59 123 91 32 26 208 101 264 113 199 41 392 -49 480 -222 38 -73 61 -207 55
-307 -4 -72 -43 -219 -65 -249 -16 -21 -32 -68 -23 -64 19 7 222 302 346 505
30 48 33 51 39 30 20 -69 110 -436 137 -560 6 -26 15 -76 20 -110 17 -126 37
-238 41 -243 7 -6 218 259 311 391 42 61 87 123 99 138 l23 28 157 -73 c87
-40 158 -76 158 -79 0 -10 -182 -244 -303 -388 -184 -220 -481 -534 -690 -730
-208 -195 -237 -219 -233 -198 11 52 16 91 21 151 3 38 8 73 11 78 11 17 13
381 3 522 -14 201 -15 202 -68 135 -64 -81 -349 -385 -408 -436 -29 -24 -53
-48 -53 -53 0 -5 15 -12 32 -16 18 -3 43 -13 55 -21 13 -9 23 -12 23 -9 0 14
96 -58 137 -102 61 -65 82 -127 79 -232 -3 -71 -8 -95 -33 -145 -46 -93 -87
-153 -159 -232 l-65 -72 -97 76 c-53 42 -101 80 -106 84 -5 4 3 19 17 33 36
36 81 96 72 96 -4 0 -2 7 5 15 16 20 7 86 -16 114 -24 28 -81 72 -97 75 -7 1
-16 4 -22 7 -5 3 -33 7 -62 8 -44 2 -56 -2 -83 -26 -64 -57 -55 -124 31 -238
62 -83 82 -145 82 -255 0 -88 -2 -101 -35 -172 -49 -104 -116 -196 -216 -296
-164 -162 -380 -306 -554 -368 -126 -45 -294 -58 -351 -27 -18 9 -35 16 -39
15 -5 -1 -8 3 -8 8 0 6 -4 10 -9 10 -28 0 -150 163 -158 209 -1 9 -5 46 -9 82
-7 70 5 115 62 236 13 29 25 56 26 60 4 31 134 197 224 287 77 78 189 170 242
200 8 5 49 -26 113 -85 l101 -93 -28 -23 c-174 -141 -213 -245 -129 -347 20
-25 41 -44 45 -41 4 3 11 -2 14 -11 3 -8 10 -13 15 -9 5 3 12 1 15 -3 8 -14
81 -7 119 12 96 45 139 174 86 257 -15 24 -53 99 -54 109 0 3 -7 16 -15 30 -7
14 -12 25 -10 25 2 0 -2 17 -9 37 -19 56 -18 125 0 203 15 63 45 142 59 155 3
3 23 30 45 60 21 30 57 74 79 98 91 97 267 203 364 218 26 5 50 9 55 10 4 1
25 2 47 3 22 0 40 4 40 9 -1 4 -42 35 -93 70 l-91 62 -116 -113 c-171 -169
-394 -369 -510 -457 -25 -19 -57 -45 -70 -56 -51 -44 -137 -111 -195 -152 -33
-24 -96 -69 -140 -101 -190 -139 -541 -369 -549 -360 -2 2 -22 32 -45 66 -22
34 -64 92 -91 128 -28 36 -50 69 -50 73 0 4 57 39 128 79 148 84 230 136 459
292 161 109 323 229 323 238 0 2 -19 3 -42 3 -57 -2 -412 12 -417 16 -2 2 4
43 12 91 19 102 26 253 13 253 -5 0 -46 -24 -90 -54 -176 -116 -405 -244 -640
-358 l-119 -57 -103 136 -102 137 176 74 c98 41 182 78 187 82 6 4 76 42 158
84 187 97 445 255 567 348 14 10 54 40 90 65 96 69 240 184 240 191 0 4 -41
36 -90 72 -50 36 -88 70 -86 75 2 6 16 42 31 80 15 39 30 79 35 90 4 11 20 61
35 110 15 50 34 107 41 127 13 36 13 37 -18 56 l-31 20 -75 -81 c-230 -250
-345 -339 -712 -550 -106 -61 -389 -196 -455 -217 -22 -7 -44 -16 -48 -20 -7
-6 167 -191 369 -392 3 -4 -14 -17 -38 -29 -72 -38 -382 -167 -390 -162 -12 6
-558 731 -558 741 0 4 46 16 103 25 56 9 123 21 148 26 79 17 399 126 484 165
44 21 96 44 115 53 99 44 294 151 421 229 188 117 624 607 928 1042 51 73 96
131 99 129 4 -2 102 -62 217 -132z m-1319 -902 c62 -43 114 -80 114 -83 0 -10
-104 -73 -280 -168 -161 -88 -368 -182 -475 -217 -38 -12 -81 -27 -95 -33 -60
-25 -254 -73 -362 -90 l-118 -19 -23 26 c-33 35 -199 262 -195 266 2 2 58 6
125 9 313 16 680 129 1053 325 63 33 121 60 128 60 8 1 65 -34 128 -76z"/>
<path d="M15109 5677 l-77 -102 101 -65 c55 -35 108 -65 118 -67 79 -12 187
132 150 200 -11 19 -190 137 -209 137 -4 0 -41 -46 -83 -103z"/>
<path d="M15910 5228 c-111 -46 -218 -132 -284 -228 -98 -146 -117 -323 -43
-407 52 -59 158 -72 270 -34 63 21 126 61 188 118 112 104 161 203 162 324 1
109 -26 165 -102 212 -39 24 -148 32 -191 15z"/>
<path d="M15431 5206 c-17 -21 -130 -73 -186 -86 -27 -7 -63 -15 -80 -19 -29
-6 -33 -14 -91 -181 -60 -173 -68 -196 -84 -235 -5 -11 -16 -39 -26 -62 l-17
-42 -29 20 c-38 28 -42 13 -23 -86 21 -103 22 -114 30 -210 3 -44 7 -93 10
-110 2 -16 4 -72 6 -123 l2 -94 306 6 c168 4 360 9 425 12 l119 5 61 54 c84
74 396 419 384 424 -5 2 -26 -12 -46 -32 -97 -92 -326 -214 -457 -243 -105
-23 -207 -26 -305 -10 -45 8 -141 72 -183 122 -33 39 -64 133 -70 210 -5 64
20 213 48 294 33 93 135 269 215 373 21 27 13 40 -9 13z"/>
</g>
</svg>
